<svg width="25" height="25" viewBox="0 0 30 30" fill="none" xmlns="http://www.w3.org/2000/svg">
    <path d="M20.6836 26.3672C20.5682 26.3672 20.4538 26.3445 20.3472 26.3004C20.2405 26.2563 20.1436 26.1915 20.0619 26.1099L9.22852 15.276C9.06375 15.1111 8.97119 14.8876 8.97119 14.6546C8.97119 14.4215 9.06375 14.198 9.22852 14.0332L20.0619 3.19921C20.1435 3.11757 20.2404 3.05281 20.347 3.00861C20.4537 2.96441 20.568 2.94165 20.6834 2.94162C20.7988 2.94159 20.9131 2.9643 21.0198 3.00845C21.1264 3.0526 21.2233 3.11732 21.305 3.19892C21.3866 3.28052 21.4514 3.37741 21.4956 3.48404C21.5398 3.59067 21.5626 3.70496 21.5626 3.82039C21.5626 3.93582 21.5399 4.05013 21.4958 4.15678C21.4516 4.26343 21.3869 4.36035 21.3053 4.44199L11.093 14.6543L21.3053 24.8666C21.4283 24.9895 21.5121 25.1461 21.546 25.3167C21.5799 25.4872 21.5625 25.664 21.496 25.8247C21.4294 25.9853 21.3167 26.1226 21.1721 26.2192C21.0275 26.3157 20.8575 26.3672 20.6836 26.3672Z" fill="white"/>
</svg>
