<svg width="62" height="62" viewBox="0 0 62 62" fill="none" xmlns="http://www.w3.org/2000/svg">
    <path d="M32.4963 11.4C33.3363 11.2163 32.4 9.44 31.6563 9.25625C31.0963 9.16 30.0725 10.0963 30.16 10.6563C30.2562 11.2163 31.6563 11.68 32.4963 11.4Z" fill="white"/>
    <path d="M30.9038 0.663757C14.2 0.663757 0.576263 14.2963 0.576263 31C0.576263 47.7038 14.2 61.3363 30.9038 61.3363C47.6075 61.3363 61.24 47.7038 61.24 31C61.24 14.2963 47.6163 0.663757 30.9038 0.663757ZM55.64 31C55.64 41.08 49.5763 49.76 40.9838 53.5838C39.8638 53.7675 38.28 53.8638 35.0075 53.8638C31.2713 53.7675 30.3438 55.08 29.4075 55.7275C28.4713 55.6313 27.4475 55.5438 26.5113 55.3513C26.3275 55.255 26.135 55.1675 25.9513 55.0713C23.895 53.7675 22.495 53.7675 21.7513 53.9513C12.695 50.3113 6.25501 41.3513 6.25501 30.9913C6.25501 27.3513 6.99876 23.9913 8.39876 20.9113C9.89501 26.415 6.25501 26.695 6.25501 30.9913C6.25501 33.7913 8.11876 38.455 10.9188 42.7513C14.095 47.5113 18.1988 51.615 19.695 51.2475C22.3988 50.4075 13.535 49.1038 19.0388 39.0238C24.5425 28.8475 11.855 35.5675 9.98251 21.6638C9.32626 16.6238 12.7825 18.12 15.3025 14.3838C17.1663 11.4875 20.9025 10.84 20.4388 8.78376C21.935 8.04001 23.5188 7.48001 25.1988 7.10376C23.4225 8.68751 21.8388 10 25.4788 9.24751C29.495 8.40751 31.5425 7.66376 31.8225 6.44751C34.0625 6.54376 36.1188 6.82376 38.1663 7.47126C36.67 7.28751 33.87 7.28751 33.7825 9.24751C33.5988 11.9513 33.2225 12.9838 31.9188 13.2638C30.615 13.5438 30.335 13.92 30.335 14.48C30.4313 16.16 32.015 16.5363 34.6313 14.48C37.2475 12.4238 37.9913 15.1363 40.0475 15.6C42.1038 16.0638 41.8238 13.5438 43.5038 14.2C45.1838 14.8563 47.24 18.4963 42.0075 18.12C36.7838 17.84 34.1675 16.3438 30.3438 18.3038C24.9275 21.0075 25.8638 29.04 31.56 28.9438C36.2238 28.9438 37.5363 29.1275 39.0238 34.08C40.5113 39.0325 38 40.8 40.6163 44.6238C43.2325 48.64 49.3925 37.44 49.2 33.7038C49.0075 29.9675 54.0563 28.2 51.2563 23.8075C48.4563 19.5113 51.8163 19.5113 54.24 22.0313C55.08 24.84 55.64 27.8238 55.64 31Z" fill="white"/>
    <path d="M48.7363 41.8238C50.04 42.2875 53.4 35.2875 51.9125 35.9438C50.32 36.6 47.7038 41.4563 48.7363 41.8238Z" fill="white"/>
</svg>

