<svg width="23" height="23" viewBox="0 0 30 30" fill="none" xmlns="http://www.w3.org/2000/svg">
    <path d="M26.2676 24.8848L19.6289 18.2402C20.8477 16.7168 21.5801 14.7773 21.5801 12.668C21.5801 7.74023 17.5899 3.75 12.6738 3.75C7.75196 3.75 3.76758 7.74609 3.76758 12.668C3.76758 17.5898 7.75781 21.5859 12.6738 21.5859C14.7949 21.5859 16.7402 20.8418 18.2695 19.6055L24.9024 26.25L26.2676 24.8848ZM7.03711 18.3164C5.53125 16.8105 4.70508 14.8066 4.70508 12.6738C4.70508 10.541 5.53711 8.53711 7.03711 7.03125C8.53711 5.52539 10.5469 4.6875 12.6738 4.6875C14.8008 4.6875 16.8047 5.51953 18.3106 7.02539C19.8164 8.53125 20.6426 10.5352 20.6426 12.668C20.6426 14.8008 19.8106 16.8047 18.3106 18.3105C16.8047 19.8164 14.8008 20.6484 12.6738 20.6484C10.5469 20.6543 8.54297 19.8223 7.03711 18.3164Z" fill="white"/>
</svg>
